<svg xmlns="http://www.w3.org/2000/svg" xmlns:xlink="http://www.w3.org/1999/xlink" width="50" zoomAndPan="magnify" viewBox="0 0 37.5 37.499999" height="50" preserveAspectRatio="xMidYMid meet" version="1.0"><defs><clipPath id="9d587eedb4"><path d="M 7 3.8125 L 14 3.8125 L 14 11 L 7 11 Z M 7 3.8125 " clip-rule="nonzero"/></clipPath><clipPath id="540327ccd6"><path d="M 23 3.8125 L 30 3.8125 L 30 11 L 23 11 Z M 23 3.8125 " clip-rule="nonzero"/></clipPath><clipPath id="2cacfbb324"><path d="M 3.699219 15 L 14 15 L 14 33.417969 L 3.699219 33.417969 Z M 3.699219 15 " clip-rule="nonzero"/></clipPath><clipPath id="b0b718b11a"><path d="M 23 15 L 33.304688 15 L 33.304688 33.417969 L 23 33.417969 Z M 23 15 " clip-rule="nonzero"/></clipPath><clipPath id="7914d02b22"><path d="M 7 13 L 30 13 L 30 33.417969 L 7 33.417969 Z M 7 13 " clip-rule="nonzero"/></clipPath></defs><g clip-path="url(#9d587eedb4)"><path fill="#f7f7f7" d="M 7.507812 10.921875 L 13.011719 10.921875 C 13.261719 10.921875 13.46875 10.714844 13.46875 10.460938 C 13.46875 8.855469 12.277344 7.503906 10.71875 7.296875 L 10.71875 4.269531 C 10.71875 4.019531 10.511719 3.8125 10.261719 3.8125 C 10.007812 3.8125 9.800781 4.019531 9.800781 4.269531 L 9.800781 7.296875 C 8.242188 7.527344 7.050781 8.855469 7.050781 10.460938 C 7.050781 10.714844 7.257812 10.921875 7.507812 10.921875 Z M 7.507812 10.921875 " fill-opacity="1" fill-rule="nonzero"/></g><path fill="#f7f7f7" d="M 9.800781 12.296875 L 9.800781 12.753906 C 9.800781 13.007812 10.007812 13.214844 10.261719 13.214844 C 10.511719 13.214844 10.71875 13.007812 10.71875 12.753906 L 10.71875 12.296875 C 10.71875 12.042969 10.511719 11.835938 10.261719 11.835938 C 10.007812 11.835938 9.800781 12.042969 9.800781 12.296875 Z M 9.800781 12.296875 " fill-opacity="1" fill-rule="nonzero"/><path fill="#f7f7f7" d="M 8.242188 11.8125 L 7.921875 12.179688 C 7.761719 12.363281 7.785156 12.664062 7.964844 12.824219 C 8.148438 12.984375 8.449219 12.960938 8.609375 12.777344 L 8.929688 12.410156 C 9.089844 12.226562 9.066406 11.929688 8.882812 11.769531 C 8.699219 11.609375 8.402344 11.632812 8.242188 11.8125 Z M 8.242188 11.8125 " fill-opacity="1" fill-rule="nonzero"/><path fill="#f7f7f7" d="M 11.636719 11.769531 C 11.453125 11.929688 11.429688 12.226562 11.589844 12.410156 L 11.910156 12.777344 C 12.070312 12.960938 12.371094 12.984375 12.554688 12.824219 C 12.734375 12.664062 12.757812 12.363281 12.597656 12.179688 L 12.277344 11.8125 C 12.117188 11.632812 11.820312 11.609375 11.636719 11.769531 Z M 11.636719 11.769531 " fill-opacity="1" fill-rule="nonzero"/><g clip-path="url(#540327ccd6)"><path fill="#f7f7f7" d="M 24.019531 10.921875 L 29.519531 10.921875 C 29.773438 10.921875 29.980469 10.714844 29.980469 10.460938 C 29.980469 8.855469 28.789062 7.503906 27.226562 7.296875 L 27.226562 4.269531 C 27.226562 4.019531 27.023438 3.8125 26.769531 3.8125 C 26.515625 3.8125 26.3125 4.019531 26.3125 4.269531 L 26.3125 7.296875 C 24.75 7.527344 23.558594 8.855469 23.558594 10.460938 C 23.558594 10.714844 23.765625 10.921875 24.019531 10.921875 Z M 24.019531 10.921875 " fill-opacity="1" fill-rule="nonzero"/></g><path fill="#f7f7f7" d="M 26.3125 12.296875 L 26.3125 12.753906 C 26.3125 13.007812 26.515625 13.214844 26.769531 13.214844 C 27.023438 13.214844 27.226562 13.007812 27.226562 12.753906 L 27.226562 12.296875 C 27.226562 12.042969 27.023438 11.835938 26.769531 11.835938 C 26.515625 11.835938 26.3125 12.042969 26.3125 12.296875 Z M 26.3125 12.296875 " fill-opacity="1" fill-rule="nonzero"/><path fill="#f7f7f7" d="M 24.75 11.8125 L 24.429688 12.179688 C 24.269531 12.363281 24.292969 12.664062 24.476562 12.824219 C 24.660156 12.984375 24.957031 12.960938 25.117188 12.777344 L 25.441406 12.410156 C 25.601562 12.226562 25.578125 11.929688 25.394531 11.769531 C 25.210938 11.609375 24.914062 11.632812 24.75 11.8125 Z M 24.75 11.8125 " fill-opacity="1" fill-rule="nonzero"/><path fill="#f7f7f7" d="M 28.144531 11.769531 C 27.960938 11.929688 27.9375 12.226562 28.101562 12.410156 C 28.101562 12.410156 28.421875 12.777344 28.421875 12.777344 C 28.582031 12.960938 28.878906 12.984375 29.0625 12.824219 C 29.246094 12.664062 29.269531 12.363281 29.109375 12.179688 L 28.789062 11.8125 C 28.628906 11.632812 28.328125 11.609375 28.144531 11.769531 Z M 28.144531 11.769531 " fill-opacity="1" fill-rule="nonzero"/><g clip-path="url(#2cacfbb324)"><path fill="#f7f7f7" d="M 10.992188 25.871094 C 10.949219 25.664062 10.765625 25.503906 10.535156 25.503906 L 7.257812 25.503906 C 7.050781 25.503906 6.84375 25.664062 6.796875 25.871094 C 6.453125 27.5 5.167969 32.246094 5.167969 32.246094 L 4.757812 32.246094 C 5.285156 30.089844 5.671875 27.429688 5.855469 26.007812 C 5.878906 25.871094 5.835938 25.757812 5.742188 25.640625 C 5.605469 25.480469 5.351562 25.480469 5.351562 25.480469 L 4.800781 16.746094 C 5.261719 16.929688 5.605469 17.410156 5.671875 17.960938 L 6.316406 24.355469 C 6.339844 24.585938 6.546875 24.769531 6.773438 24.769531 L 11.679688 24.769531 C 12.140625 24.769531 12.554688 25.066406 12.714844 25.480469 C 12.714844 25.480469 12.414062 25.480469 12.414062 25.480469 C 12.140625 25.480469 11.933594 25.734375 11.957031 26.007812 C 12.046875 26.742188 12.253906 28.277344 12.554688 29.859375 C 12.757812 29.816406 12.964844 29.769531 13.171875 29.769531 L 13.425781 29.769531 L 13.46875 29.746094 C 13.242188 28.460938 13.058594 27.222656 12.941406 26.398438 L 13.242188 26.398438 C 13.492188 26.398438 13.699219 26.191406 13.699219 25.941406 C 13.699219 24.769531 12.804688 23.851562 11.660156 23.851562 L 7.1875 23.851562 L 6.589844 17.867188 C 6.453125 16.652344 5.46875 15.734375 4.296875 15.734375 C 4.046875 15.734375 3.816406 15.964844 3.839844 16.21875 L 4.457031 25.550781 C 4.480469 25.871094 4.664062 26.125 4.894531 26.285156 C 4.710938 27.566406 4.34375 30.066406 3.863281 32.039062 C 3.722656 32.589844 4.160156 33.164062 4.757812 33.164062 L 5.167969 33.164062 C 5.582031 33.164062 5.949219 32.886719 6.039062 32.496094 C 6.039062 32.496094 7.234375 28.117188 7.621094 26.421875 L 10.167969 26.421875 C 10.441406 27.636719 10.902344 29.449219 11.292969 30.824219 C 11.476562 30.527344 11.726562 30.273438 12.046875 30.089844 C 11.636719 28.644531 11.199219 26.925781 10.992188 25.871094 Z M 10.992188 25.871094 " fill-opacity="1" fill-rule="nonzero"/></g><g clip-path="url(#b0b718b11a)"><path fill="#f7f7f7" d="M 32.136719 26.285156 C 32.386719 26.125 32.570312 25.871094 32.570312 25.550781 C 32.570312 25.550781 33.191406 16.21875 33.191406 16.21875 C 33.214844 15.964844 32.984375 15.734375 32.730469 15.734375 C 31.5625 15.734375 30.578125 16.652344 30.460938 17.890625 L 29.867188 23.875 L 25.371094 23.875 C 24.222656 23.875 23.332031 24.792969 23.332031 25.960938 C 23.332031 26.214844 23.535156 26.421875 23.789062 26.421875 L 24.109375 26.421875 C 23.996094 27.246094 23.8125 28.507812 23.582031 29.792969 L 23.878906 29.792969 C 24.085938 29.792969 24.292969 29.816406 24.5 29.882812 C 24.796875 28.277344 25.003906 26.765625 25.097656 26.03125 C 25.117188 25.757812 24.914062 25.503906 24.636719 25.503906 L 24.339844 25.503906 C 24.5 25.089844 24.890625 24.792969 25.371094 24.792969 L 30.277344 24.792969 C 30.507812 24.792969 30.714844 24.609375 30.738281 24.378906 L 31.378906 17.984375 C 31.449219 17.410156 31.792969 16.949219 32.25 16.765625 L 31.675781 25.527344 L 31.652344 25.527344 C 31.378906 25.527344 31.171875 25.777344 31.195312 26.054688 C 31.378906 27.453125 31.769531 30.136719 32.296875 32.269531 L 31.882812 32.269531 C 31.882812 32.269531 30.578125 27.5 30.230469 25.894531 C 30.1875 25.6875 30.003906 25.527344 29.773438 25.527344 L 26.496094 25.527344 C 26.265625 25.527344 26.082031 25.6875 26.035156 25.894531 C 25.828125 26.949219 25.371094 28.667969 24.980469 30.113281 C 25.277344 30.296875 25.554688 30.546875 25.738281 30.847656 C 26.105469 29.472656 26.585938 27.660156 26.863281 26.445312 L 29.40625 26.445312 C 29.796875 28.140625 30.988281 32.519531 30.988281 32.519531 C 31.105469 32.910156 31.449219 33.1875 31.859375 33.1875 C 31.859375 33.1875 32.273438 33.1875 32.273438 33.1875 C 32.847656 33.1875 33.28125 32.613281 33.167969 32.0625 C 32.6875 30.066406 32.320312 27.589844 32.136719 26.285156 Z M 32.136719 26.285156 " fill-opacity="1" fill-rule="nonzero"/></g><g clip-path="url(#7914d02b22)"><path fill="#f7f7f7" d="M 23.902344 30.710938 L 23.167969 30.710938 L 20.671875 28.804688 C 20.507812 28.691406 20.328125 28.597656 20.121094 28.578125 L 20.121094 26.285156 C 20.121094 25.777344 19.707031 25.367188 19.203125 25.367188 L 18.972656 25.367188 L 18.972656 24.449219 L 19.203125 24.449219 C 19.707031 24.449219 20.121094 24.035156 20.121094 23.53125 L 20.121094 22.476562 C 20.328125 22.570312 20.554688 22.613281 20.808594 22.613281 C 21.21875 22.613281 21.609375 22.476562 21.910156 22.226562 C 21.929688 22.203125 21.953125 22.203125 21.976562 22.226562 C 22.273438 22.476562 22.664062 22.613281 23.078125 22.613281 C 23.492188 22.613281 23.878906 22.476562 24.179688 22.226562 C 24.203125 22.203125 24.222656 22.203125 24.246094 22.226562 C 24.546875 22.476562 24.933594 22.613281 25.347656 22.613281 C 25.761719 22.613281 26.152344 22.476562 26.449219 22.226562 C 26.472656 22.203125 26.496094 22.203125 26.496094 22.203125 C 26.839844 22.5 27.296875 22.660156 27.777344 22.613281 C 28.605469 22.546875 29.222656 21.902344 29.222656 21.125 L 29.222656 19.816406 C 29.222656 19.335938 28.8125 18.945312 28.304688 18.945312 L 26.90625 18.945312 C 27.113281 18.648438 27.226562 18.304688 27.226562 17.914062 C 27.226562 16.90625 26.402344 16.078125 25.394531 16.078125 C 24.386719 16.078125 23.558594 16.90625 23.558594 17.914062 C 23.558594 18.304688 23.675781 18.648438 23.878906 18.945312 L 22.710938 18.945312 C 22.367188 17.476562 21.199219 16.308594 19.683594 15.894531 C 19.84375 15.710938 19.890625 15.507812 19.890625 15.277344 C 19.890625 14.519531 19.269531 13.902344 18.515625 13.902344 C 17.757812 13.902344 17.140625 14.519531 17.140625 15.277344 C 17.140625 15.507812 17.183594 15.710938 17.300781 15.894531 C 15.785156 16.308594 14.617188 17.476562 14.273438 18.945312 L 13.378906 18.945312 C 13.425781 18.808594 13.46875 18.648438 13.46875 18.488281 L 13.46875 17.113281 C 13.46875 16.859375 13.261719 16.652344 13.011719 16.652344 L 10.71875 16.652344 C 10.464844 16.652344 10.261719 16.859375 10.261719 17.113281 L 10.261719 18.488281 C 10.261719 18.648438 10.28125 18.808594 10.351562 18.945312 L 8.65625 18.945312 C 8.148438 18.945312 7.738281 19.335938 7.738281 19.816406 L 7.738281 21.125 C 7.738281 21.882812 8.378906 22.546875 9.183594 22.613281 C 9.664062 22.660156 10.121094 22.5 10.464844 22.203125 C 10.464844 22.203125 10.511719 22.203125 10.535156 22.226562 C 10.832031 22.476562 11.222656 22.613281 11.636719 22.613281 C 12.046875 22.613281 12.4375 22.476562 12.734375 22.226562 C 12.757812 22.203125 12.78125 22.203125 12.804688 22.226562 C 13.101562 22.476562 13.492188 22.613281 13.90625 22.613281 C 14.320312 22.613281 14.707031 22.476562 15.007812 22.226562 C 15.03125 22.203125 15.050781 22.203125 15.074219 22.226562 C 15.375 22.476562 15.761719 22.613281 16.175781 22.613281 C 16.429688 22.613281 16.65625 22.570312 16.863281 22.476562 L 16.863281 23.53125 C 16.863281 24.035156 17.277344 24.449219 17.78125 24.449219 L 18.011719 24.449219 L 18.011719 25.367188 L 17.78125 25.367188 C 17.277344 25.367188 16.863281 25.777344 16.863281 26.285156 L 16.863281 28.578125 C 16.613281 28.578125 16.359375 28.667969 16.152344 28.804688 L 13.628906 30.710938 L 13.082031 30.710938 C 12.371094 30.710938 11.820312 31.257812 11.820312 31.949219 C 11.820312 32.636719 12.390625 33.1875 13.082031 33.1875 L 13.929688 33.1875 C 14.25 33.1875 14.546875 33.070312 14.800781 32.886719 L 16.976562 31.214844 C 17.023438 31.191406 17.070312 31.167969 17.140625 31.167969 L 19.777344 31.167969 C 19.84375 31.167969 19.890625 31.191406 19.9375 31.214844 L 22.113281 32.886719 C 22.367188 33.070312 22.664062 33.1875 22.984375 33.1875 L 23.949219 33.1875 C 24.636719 33.1875 25.210938 32.636719 25.210938 31.949219 C 25.164062 31.257812 24.589844 30.710938 23.902344 30.710938 Z M 25.460938 16.996094 C 25.96875 16.996094 26.378906 17.410156 26.378906 17.914062 C 26.378906 18.417969 25.96875 18.832031 25.460938 18.832031 C 24.957031 18.832031 24.546875 18.417969 24.546875 17.914062 C 24.546875 17.410156 24.933594 16.996094 25.460938 16.996094 Z M 12.554688 18.488281 C 12.554688 18.738281 12.347656 18.945312 12.09375 18.945312 L 11.636719 18.945312 C 11.382812 18.945312 11.175781 18.738281 11.175781 18.488281 L 11.175781 17.570312 L 12.554688 17.570312 Z M 15.210938 18.945312 C 15.648438 17.617188 16.957031 16.652344 18.515625 16.652344 C 20.074219 16.652344 21.382812 17.617188 21.816406 18.945312 Z M 17.828125 23.53125 L 17.828125 22.476562 C 18.035156 22.570312 18.261719 22.613281 18.515625 22.613281 C 18.765625 22.613281 18.996094 22.570312 19.203125 22.476562 L 19.203125 23.53125 Z M 19.203125 28.578125 L 17.828125 28.578125 L 17.828125 26.285156 L 19.203125 26.285156 Z M 19.203125 28.578125 " fill-opacity="1" fill-rule="nonzero"/></g><path fill="#f7f7f7" d="M 17.230469 8.992188 L 17.070312 9.933594 C 17.046875 10.117188 17.117188 10.277344 17.253906 10.394531 C 17.390625 10.484375 17.574219 10.507812 17.734375 10.414062 L 18.515625 9.980469 C 18.515625 9.980469 19.292969 10.414062 19.292969 10.414062 C 19.453125 10.507812 19.636719 10.484375 19.777344 10.394531 C 19.914062 10.300781 19.980469 10.117188 19.960938 9.933594 L 19.800781 8.992188 L 20.441406 8.328125 C 20.554688 8.214844 20.601562 8.03125 20.554688 7.871094 C 20.507812 7.710938 20.347656 7.59375 20.1875 7.574219 L 19.316406 7.433594 L 18.925781 6.609375 C 18.859375 6.449219 18.699219 6.335938 18.515625 6.335938 C 18.332031 6.335938 18.171875 6.425781 18.101562 6.609375 L 17.710938 7.433594 L 16.839844 7.574219 C 16.679688 7.59375 16.519531 7.710938 16.472656 7.871094 C 16.429688 8.03125 16.449219 8.214844 16.589844 8.328125 Z M 17.230469 8.992188 " fill-opacity="1" fill-rule="nonzero"/></svg>