<svg xmlns="http://www.w3.org/2000/svg" xmlns:xlink="http://www.w3.org/1999/xlink" width="50" zoomAndPan="magnify" viewBox="0 0 37.5 37.499999" height="50" preserveAspectRatio="xMidYMid meet" version="1.0"><defs><clipPath id="72c412851c"><path d="M 3.699219 12 L 9 12 L 9 25 L 3.699219 25 Z M 3.699219 12 " clip-rule="nonzero"/></clipPath><clipPath id="1388c88f54"><path d="M 27 12 L 33.304688 12 L 33.304688 25 L 27 25 Z M 27 12 " clip-rule="nonzero"/></clipPath><clipPath id="327e64651c"><path d="M 7 22 L 10 22 L 10 28.125 L 7 28.125 Z M 7 22 " clip-rule="nonzero"/></clipPath><clipPath id="22bc90ca11"><path d="M 11 22 L 14 22 L 14 28.125 L 11 28.125 Z M 11 22 " clip-rule="nonzero"/></clipPath><clipPath id="6595231961"><path d="M 15 22 L 19 22 L 19 28.125 L 15 28.125 Z M 15 22 " clip-rule="nonzero"/></clipPath><clipPath id="ed554f60c0"><path d="M 20 22 L 23 22 L 23 28.125 L 20 28.125 Z M 20 22 " clip-rule="nonzero"/></clipPath><clipPath id="0e67426d8f"><path d="M 24 22 L 27 22 L 27 28.125 L 24 28.125 Z M 24 22 " clip-rule="nonzero"/></clipPath><clipPath id="50caf7c132"><path d="M 11 8.882812 L 12 8.882812 L 12 18 L 11 18 Z M 11 8.882812 " clip-rule="nonzero"/></clipPath></defs><path fill="#f7f7f7" d="M 28.296875 24.074219 L 27.429688 24.074219 C 27.261719 24.074219 27.128906 23.941406 27.128906 23.773438 C 27.128906 23.605469 27.261719 23.472656 27.429688 23.472656 L 28.296875 23.472656 C 29.929688 23.472656 31.257812 22.144531 31.257812 20.511719 L 31.257812 14.507812 C 31.257812 13.839844 30.714844 13.300781 30.046875 13.300781 L 16.332031 13.300781 C 16.167969 13.300781 16.03125 13.164062 16.03125 12.996094 C 16.03125 12.832031 16.167969 12.695312 16.332031 12.695312 L 30.046875 12.695312 C 31.046875 12.695312 31.859375 13.507812 31.859375 14.507812 L 31.859375 20.511719 C 31.859375 22.476562 30.261719 24.074219 28.296875 24.074219 Z M 28.296875 24.074219 " fill-opacity="1" fill-rule="nonzero"/><g clip-path="url(#72c412851c)"><path fill="#f7f7f7" d="M 8.375 24.074219 L 7.265625 24.074219 C 5.300781 24.074219 3.703125 22.476562 3.703125 20.511719 L 3.703125 14.507812 C 3.703125 13.507812 4.515625 12.695312 5.515625 12.695312 L 6.203125 12.695312 C 6.371094 12.695312 6.503906 12.832031 6.503906 12.996094 C 6.503906 13.164062 6.371094 13.296875 6.203125 13.296875 L 5.515625 13.296875 C 4.847656 13.296875 4.304688 13.839844 4.304688 14.507812 L 4.304688 20.511719 C 4.304688 22.144531 5.632812 23.472656 7.265625 23.472656 L 8.375 23.472656 C 8.542969 23.472656 8.675781 23.605469 8.675781 23.773438 C 8.675781 23.941406 8.542969 24.074219 8.375 24.074219 Z M 8.375 24.074219 " fill-opacity="1" fill-rule="nonzero"/></g><g clip-path="url(#1388c88f54)"><path fill="#f7f7f7" d="M 31.496094 12.695312 L 30.289062 12.695312 C 30.121094 12.695312 29.988281 12.832031 29.988281 12.996094 C 29.988281 13.164062 30.121094 13.296875 30.289062 13.296875 C 30.957031 13.296875 31.5 13.839844 31.5 14.507812 L 31.5 20.511719 C 31.5 22.144531 30.167969 23.472656 28.535156 23.472656 L 27.667969 23.472656 C 27.503906 23.472656 27.367188 23.605469 27.367188 23.773438 C 27.367188 23.941406 27.503906 24.074219 27.667969 24.074219 L 28.535156 24.074219 C 28.625 24.074219 28.710938 24.070312 28.796875 24.0625 C 28.824219 24.070312 28.847656 24.074219 28.875 24.074219 L 29.742188 24.074219 C 31.707031 24.074219 33.308594 22.476562 33.308594 20.511719 L 33.308594 14.507812 C 33.308594 13.507812 32.496094 12.695312 31.496094 12.695312 Z M 31.496094 12.695312 " fill-opacity="1" fill-rule="nonzero"/></g><path fill="#f7f7f7" d="M 28.632812 21.363281 L 6.925781 21.363281 C 6.761719 21.363281 6.625 21.226562 6.625 21.058594 C 6.625 20.894531 6.761719 20.757812 6.925781 20.757812 L 28.632812 20.757812 C 28.800781 20.757812 28.9375 20.894531 28.9375 21.058594 C 28.9375 21.226562 28.800781 21.363281 28.632812 21.363281 Z M 28.632812 21.363281 " fill-opacity="1" fill-rule="nonzero"/><path fill="#f7f7f7" d="M 28.632812 15.332031 L 26.34375 15.332031 C 26.175781 15.332031 26.042969 15.195312 26.042969 15.03125 C 26.042969 14.863281 26.175781 14.730469 26.34375 14.730469 L 28.632812 14.730469 C 28.800781 14.730469 28.9375 14.863281 28.9375 15.03125 C 28.9375 15.195312 28.800781 15.332031 28.632812 15.332031 Z M 28.632812 15.332031 " fill-opacity="1" fill-rule="nonzero"/><path fill="#f7f7f7" d="M 26.347656 22.34375 L 8.917969 22.34375 C 8.285156 22.34375 7.773438 21.832031 7.773438 21.199219 L 7.773438 21.058594 C 7.773438 20.894531 7.910156 20.757812 8.074219 20.757812 C 8.242188 20.757812 8.378906 20.894531 8.378906 21.058594 L 8.378906 21.199219 C 8.378906 21.496094 8.621094 21.742188 8.917969 21.742188 L 26.347656 21.742188 C 26.644531 21.742188 26.886719 21.5 26.886719 21.199219 L 26.886719 21.058594 C 26.886719 20.894531 27.019531 20.757812 27.1875 20.757812 C 27.355469 20.757812 27.488281 20.894531 27.488281 21.058594 L 27.488281 21.199219 C 27.488281 21.832031 26.976562 22.34375 26.347656 22.34375 Z M 26.347656 22.34375 " fill-opacity="1" fill-rule="nonzero"/><g clip-path="url(#327e64651c)"><path fill="#f7f7f7" d="M 7.671875 28.125 C 7.589844 28.125 7.511719 28.09375 7.453125 28.03125 C 7.335938 27.910156 7.34375 27.71875 7.460938 27.605469 C 8.636719 26.480469 9.203125 24.722656 8.90625 23.125 C 8.875 22.960938 8.984375 22.804688 9.148438 22.773438 C 9.3125 22.742188 9.46875 22.851562 9.5 23.015625 C 9.832031 24.808594 9.199219 26.78125 7.878906 28.039062 C 7.820312 28.097656 7.746094 28.125 7.671875 28.125 Z M 7.671875 28.125 " fill-opacity="1" fill-rule="nonzero"/></g><g clip-path="url(#22bc90ca11)"><path fill="#f7f7f7" d="M 11.953125 28.125 C 11.871094 28.125 11.792969 28.09375 11.734375 28.03125 C 11.617188 27.910156 11.625 27.71875 11.742188 27.605469 C 12.917969 26.480469 13.484375 24.722656 13.1875 23.125 C 13.15625 22.960938 13.265625 22.804688 13.429688 22.773438 C 13.59375 22.742188 13.75 22.851562 13.78125 23.015625 C 14.113281 24.808594 13.480469 26.78125 12.160156 28.039062 C 12.101562 28.097656 12.027344 28.125 11.953125 28.125 Z M 11.953125 28.125 " fill-opacity="1" fill-rule="nonzero"/></g><g clip-path="url(#6595231961)"><path fill="#f7f7f7" d="M 16.234375 28.125 C 16.152344 28.125 16.074219 28.09375 16.015625 28.03125 C 15.898438 27.910156 15.902344 27.71875 16.023438 27.605469 C 17.199219 26.480469 17.765625 24.722656 17.46875 23.125 C 17.4375 22.960938 17.546875 22.804688 17.707031 22.773438 C 17.871094 22.742188 18.03125 22.851562 18.0625 23.015625 C 18.394531 24.808594 17.761719 26.78125 16.441406 28.039062 C 16.382812 28.097656 16.308594 28.125 16.234375 28.125 Z M 16.234375 28.125 " fill-opacity="1" fill-rule="nonzero"/></g><g clip-path="url(#ed554f60c0)"><path fill="#f7f7f7" d="M 20.515625 28.125 C 20.433594 28.125 20.355469 28.09375 20.296875 28.03125 C 20.179688 27.910156 20.183594 27.71875 20.304688 27.605469 C 21.480469 26.480469 22.046875 24.722656 21.75 23.125 C 21.71875 22.960938 21.824219 22.804688 21.988281 22.773438 C 22.152344 22.742188 22.3125 22.851562 22.339844 23.015625 C 22.675781 24.808594 22.039062 26.78125 20.722656 28.039062 C 20.664062 28.097656 20.589844 28.125 20.515625 28.125 Z M 20.515625 28.125 " fill-opacity="1" fill-rule="nonzero"/></g><g clip-path="url(#0e67426d8f)"><path fill="#f7f7f7" d="M 24.796875 28.125 C 24.714844 28.125 24.636719 28.09375 24.578125 28.03125 C 24.460938 27.910156 24.464844 27.71875 24.585938 27.605469 C 25.761719 26.480469 26.328125 24.722656 26.03125 23.125 C 26 22.960938 26.109375 22.804688 26.269531 22.773438 C 26.433594 22.742188 26.59375 22.851562 26.621094 23.015625 C 26.957031 24.808594 26.320312 26.78125 25.003906 28.039062 C 24.945312 28.097656 24.871094 28.125 24.796875 28.125 Z M 24.796875 28.125 " fill-opacity="1" fill-rule="nonzero"/></g><g clip-path="url(#50caf7c132)"><path fill="#f7f7f7" d="M 11.335938 17.167969 C 11.167969 17.167969 11.035156 17.035156 11.035156 16.867188 L 11.035156 9.183594 C 11.035156 9.015625 11.167969 8.878906 11.335938 8.878906 C 11.5 8.878906 11.636719 9.015625 11.636719 9.183594 L 11.636719 16.867188 C 11.636719 17.035156 11.5 17.167969 11.335938 17.167969 Z M 11.335938 17.167969 " fill-opacity="1" fill-rule="nonzero"/></g><path fill="#f7f7f7" d="M 11.328125 11.449219 L 9.933594 9.824219 C 9.824219 9.695312 9.839844 9.507812 9.964844 9.398438 C 10.09375 9.289062 10.28125 9.304688 10.390625 9.429688 L 11.34375 10.542969 L 12.367188 9.421875 C 12.480469 9.300781 12.667969 9.292969 12.792969 9.40625 C 12.914062 9.515625 12.921875 9.707031 12.8125 9.832031 Z M 11.328125 11.449219 " fill-opacity="1" fill-rule="nonzero"/><path fill="#f7f7f7" d="M 12.589844 16.796875 C 12.507812 16.796875 12.429688 16.765625 12.371094 16.703125 L 11.375 15.648438 L 10.382812 16.703125 C 10.265625 16.824219 10.078125 16.832031 9.953125 16.714844 C 9.832031 16.601562 9.828125 16.410156 9.941406 16.289062 L 11.375 14.769531 L 12.808594 16.289062 C 12.921875 16.410156 12.917969 16.601562 12.796875 16.714844 C 12.738281 16.769531 12.664062 16.796875 12.589844 16.796875 Z M 12.589844 16.796875 " fill-opacity="1" fill-rule="nonzero"/><path fill="#f7f7f7" d="M 8.023438 15.203125 C 7.917969 15.203125 7.816406 15.148438 7.761719 15.050781 C 7.679688 14.90625 7.726562 14.722656 7.871094 14.640625 L 14.539062 10.816406 C 14.683594 10.734375 14.867188 10.78125 14.949219 10.925781 C 15.03125 11.070312 14.980469 11.253906 14.839844 11.339844 L 8.171875 15.164062 C 8.125 15.191406 8.074219 15.203125 8.023438 15.203125 Z M 8.023438 15.203125 " fill-opacity="1" fill-rule="nonzero"/><path fill="#f7f7f7" d="M 14.925781 12.6875 C 14.90625 12.6875 14.882812 12.683594 14.859375 12.679688 L 12.71875 12.199219 L 13.433594 10.179688 C 13.492188 10.023438 13.664062 9.941406 13.820312 9.996094 C 13.976562 10.050781 14.058594 10.226562 14.003906 10.382812 L 13.511719 11.761719 L 14.992188 12.089844 C 15.15625 12.128906 15.257812 12.289062 15.222656 12.453125 C 15.1875 12.59375 15.066406 12.6875 14.925781 12.6875 Z M 14.925781 12.6875 " fill-opacity="1" fill-rule="nonzero"/><path fill="#f7f7f7" d="M 8.96875 16.105469 C 8.9375 16.105469 8.910156 16.101562 8.878906 16.09375 C 8.71875 16.046875 8.628906 15.878906 8.679688 15.71875 L 9.101562 14.332031 L 7.691406 13.992188 C 7.527344 13.957031 7.425781 13.792969 7.464844 13.628906 C 7.503906 13.46875 7.667969 13.367188 7.828125 13.40625 L 9.863281 13.894531 L 9.257812 15.894531 C 9.214844 16.023438 9.097656 16.105469 8.96875 16.105469 Z M 8.96875 16.105469 " fill-opacity="1" fill-rule="nonzero"/><path fill="#f7f7f7" d="M 14.769531 15.167969 C 14.71875 15.167969 14.667969 15.15625 14.625 15.128906 L 7.878906 11.449219 C 7.730469 11.371094 7.675781 11.1875 7.757812 11.039062 C 7.835938 10.894531 8.019531 10.839844 8.167969 10.921875 L 14.914062 14.601562 C 15.058594 14.679688 15.113281 14.863281 15.035156 15.011719 C 14.976562 15.109375 14.875 15.167969 14.769531 15.167969 Z M 14.769531 15.167969 " fill-opacity="1" fill-rule="nonzero"/><path fill="#f7f7f7" d="M 13.777344 16.054688 C 13.652344 16.054688 13.535156 15.976562 13.492188 15.851562 L 12.78125 13.773438 L 14.875 13.328125 C 15.039062 13.292969 15.199219 13.398438 15.234375 13.558594 C 15.269531 13.722656 15.164062 13.882812 15.003906 13.917969 L 13.570312 14.222656 L 14.0625 15.65625 C 14.117188 15.8125 14.03125 15.984375 13.875 16.039062 C 13.84375 16.050781 13.808594 16.054688 13.777344 16.054688 Z M 13.777344 16.054688 " fill-opacity="1" fill-rule="nonzero"/><path fill="#f7f7f7" d="M 7.746094 12.765625 C 7.613281 12.765625 7.492188 12.675781 7.453125 12.539062 C 7.414062 12.378906 7.507812 12.214844 7.671875 12.171875 L 9.074219 11.804688 L 8.621094 10.425781 C 8.570312 10.269531 8.65625 10.097656 8.816406 10.046875 C 8.972656 9.996094 9.144531 10.082031 9.195312 10.238281 L 9.84375 12.226562 L 7.824219 12.753906 C 7.796875 12.761719 7.769531 12.765625 7.746094 12.765625 Z M 7.746094 12.765625 " fill-opacity="1" fill-rule="nonzero"/></svg>