<svg xmlns="http://www.w3.org/2000/svg" xmlns:xlink="http://www.w3.org/1999/xlink" width="50" zoomAndPan="magnify" viewBox="0 0 37.5 37.499999" height="50" preserveAspectRatio="xMidYMid meet" version="1.0"><defs><clipPath id="2410d5cae5"><path d="M 3.699219 16 L 25 16 L 25 33.304688 L 3.699219 33.304688 Z M 3.699219 16 " clip-rule="nonzero"/></clipPath><clipPath id="fbf10c066b"><path d="M 25 22 L 33.304688 22 L 33.304688 31 L 25 31 Z M 25 22 " clip-rule="nonzero"/></clipPath><clipPath id="52ad00b193"><path d="M 3.699219 3.699219 L 33.304688 3.699219 L 33.304688 17 L 3.699219 17 Z M 3.699219 3.699219 " clip-rule="nonzero"/></clipPath></defs><g clip-path="url(#2410d5cae5)"><path fill="#f7f7f7" d="M 4.195312 33.304688 L 6.167969 33.304688 C 6.441406 33.304688 6.660156 33.085938 6.660156 32.8125 L 6.660156 31.332031 L 21.464844 31.332031 L 21.464844 32.8125 C 21.464844 33.085938 21.683594 33.304688 21.957031 33.304688 L 23.929688 33.304688 C 24.203125 33.304688 24.425781 33.085938 24.425781 32.8125 L 24.425781 24.917969 C 24.425781 23.726562 23.574219 22.730469 22.449219 22.5 L 22.449219 18.011719 C 22.449219 17.195312 21.785156 16.53125 20.96875 16.53125 L 7.15625 16.53125 C 6.339844 16.53125 5.675781 17.195312 5.675781 18.011719 L 5.675781 22.5 C 4.550781 22.730469 3.699219 23.726562 3.699219 24.917969 L 3.699219 32.8125 C 3.699219 33.085938 3.921875 33.304688 4.195312 33.304688 Z M 23.4375 32.320312 L 22.449219 32.320312 L 22.449219 30.839844 C 22.449219 30.566406 22.230469 30.34375 21.957031 30.34375 L 6.167969 30.34375 C 5.894531 30.34375 5.675781 30.566406 5.675781 30.839844 L 5.675781 32.320312 L 4.6875 32.320312 L 4.6875 28.371094 L 23.4375 28.371094 Z M 6.660156 18.011719 C 6.660156 17.738281 6.882812 17.515625 7.15625 17.515625 L 20.96875 17.515625 C 21.242188 17.515625 21.464844 17.738281 21.464844 18.011719 L 21.464844 22.449219 L 20.476562 22.449219 L 20.476562 20.476562 C 20.476562 19.660156 19.8125 18.996094 18.996094 18.996094 L 16.035156 18.996094 C 15.21875 18.996094 14.554688 19.660156 14.554688 20.476562 L 14.554688 22.449219 L 13.570312 22.449219 L 13.570312 20.476562 C 13.570312 19.660156 12.90625 18.996094 12.089844 18.996094 L 9.128906 18.996094 C 8.3125 18.996094 7.648438 19.660156 7.648438 20.476562 L 7.648438 22.449219 L 6.660156 22.449219 Z M 19.488281 22.449219 L 15.542969 22.449219 L 15.542969 20.476562 C 15.542969 20.207031 15.765625 19.984375 16.035156 19.984375 L 18.996094 19.984375 C 19.269531 19.984375 19.488281 20.207031 19.488281 20.476562 Z M 12.582031 22.449219 L 8.636719 22.449219 L 8.636719 20.476562 C 8.636719 20.207031 8.855469 19.984375 9.128906 19.984375 L 12.089844 19.984375 C 12.359375 19.984375 12.582031 20.207031 12.582031 20.476562 Z M 4.6875 24.917969 C 4.6875 24.101562 5.351562 23.4375 6.167969 23.4375 L 21.957031 23.4375 C 22.773438 23.4375 23.4375 24.101562 23.4375 24.917969 L 23.4375 27.386719 L 4.6875 27.386719 Z M 4.6875 24.917969 " fill-opacity="1" fill-rule="nonzero"/></g><g clip-path="url(#fbf10c066b)"><path fill="#f7f7f7" d="M 32.8125 22.449219 L 25.90625 22.449219 C 25.632812 22.449219 25.410156 22.671875 25.410156 22.945312 L 25.410156 30.34375 L 26.398438 30.34375 L 26.398438 27.386719 L 32.320312 27.386719 L 32.320312 30.34375 L 33.304688 30.34375 L 33.304688 22.945312 C 33.304688 22.671875 33.085938 22.449219 32.8125 22.449219 Z M 26.398438 26.398438 L 26.398438 23.4375 L 32.320312 23.4375 L 32.320312 26.398438 Z M 26.398438 26.398438 " fill-opacity="1" fill-rule="nonzero"/></g><path fill="#f7f7f7" d="M 28.371094 24.425781 L 30.34375 24.425781 L 30.34375 25.410156 L 28.371094 25.410156 Z M 28.371094 24.425781 " fill-opacity="1" fill-rule="nonzero"/><path fill="#f7f7f7" d="M 31.332031 18.996094 C 31.492188 18.996094 31.640625 18.921875 31.730469 18.792969 C 31.824219 18.664062 31.851562 18.496094 31.800781 18.347656 L 30.8125 15.386719 C 30.746094 15.183594 30.558594 15.050781 30.34375 15.050781 L 28.371094 15.050781 C 28.160156 15.050781 27.972656 15.183594 27.902344 15.386719 L 26.917969 18.347656 C 26.867188 18.496094 26.890625 18.664062 26.984375 18.792969 C 27.078125 18.921875 27.226562 18.996094 27.386719 18.996094 L 28.863281 18.996094 L 28.863281 20.476562 L 27.878906 20.476562 L 27.878906 21.464844 L 30.839844 21.464844 L 30.839844 20.476562 L 29.851562 20.476562 L 29.851562 18.996094 Z M 28.726562 16.035156 L 29.988281 16.035156 L 30.648438 18.011719 L 28.070312 18.011719 Z M 28.726562 16.035156 " fill-opacity="1" fill-rule="nonzero"/><g clip-path="url(#52ad00b193)"><path fill="#f7f7f7" d="M 33.015625 10.15625 L 18.707031 3.742188 C 18.578125 3.6875 18.429688 3.6875 18.300781 3.742188 L 3.992188 10.15625 C 3.816406 10.238281 3.699219 10.414062 3.699219 10.609375 L 3.699219 16.53125 L 4.6875 16.53125 L 4.6875 10.929688 L 18.503906 4.734375 L 32.320312 10.929688 L 32.320312 16.53125 L 33.304688 16.53125 L 33.304688 10.609375 C 33.304688 10.414062 33.191406 10.238281 33.015625 10.15625 Z M 33.015625 10.15625 " fill-opacity="1" fill-rule="nonzero"/></g><path fill="#f7f7f7" d="M 15.050781 11.101562 C 15.050781 13.007812 16.597656 14.554688 18.503906 14.554688 C 20.40625 14.554688 21.957031 13.007812 21.957031 11.101562 C 21.957031 10.910156 21.941406 10.714844 21.910156 10.527344 L 20.9375 10.691406 C 20.960938 10.824219 20.96875 10.964844 20.96875 11.101562 C 20.96875 12.460938 19.863281 13.570312 18.503906 13.570312 C 17.144531 13.570312 16.035156 12.460938 16.035156 11.101562 C 16.035156 9.742188 17.144531 8.636719 18.503906 8.636719 C 18.785156 8.636719 19.0625 8.683594 19.328125 8.777344 L 19.65625 7.84375 C 19.285156 7.714844 18.898438 7.648438 18.503906 7.648438 C 16.597656 7.648438 15.050781 9.199219 15.050781 11.101562 Z M 15.050781 11.101562 " fill-opacity="1" fill-rule="nonzero"/><path fill="#f7f7f7" d="M 17.867188 10.257812 L 17.167969 10.957031 L 18.15625 11.945312 C 18.25 12.039062 18.378906 12.089844 18.503906 12.089844 C 18.628906 12.089844 18.757812 12.039062 18.851562 11.945312 L 22.304688 8.492188 L 21.609375 7.792969 L 18.503906 10.898438 Z M 17.867188 10.257812 " fill-opacity="1" fill-rule="nonzero"/></svg>