<svg xmlns="http://www.w3.org/2000/svg" xmlns:xlink="http://www.w3.org/1999/xlink" width="50" zoomAndPan="magnify" viewBox="0 0 37.5 37.499999" height="50" preserveAspectRatio="xMidYMid meet" version="1.0"><defs><clipPath id="51c84777cc"><path d="M 3.699219 6.085938 L 33.304688 6.085938 L 33.304688 31 L 3.699219 31 Z M 3.699219 6.085938 " clip-rule="nonzero"/></clipPath></defs><g clip-path="url(#51c84777cc)"><path fill="#f7f7f7" d="M 20.738281 12.0625 C 19.847656 13.230469 19.3125 14.703125 19.3125 16.304688 C 19.3125 20.09375 22.296875 23.164062 25.972656 23.164062 C 27.683594 23.164062 29.242188 22.5 30.421875 21.40625 Z M 21.019531 11.71875 C 22.269531 12.921875 26.25 16.761719 30.742188 21.089844 C 31.910156 19.855469 32.632812 18.167969 32.632812 16.304688 C 32.632812 12.515625 29.648438 9.445312 25.972656 9.445312 C 24.007812 9.445312 22.238281 10.324219 21.019531 11.71875 Z M 22.359375 9.738281 C 23.425781 9.113281 24.65625 8.757812 25.96875 8.757812 C 30.011719 8.757812 33.292969 12.136719 33.292969 16.304688 C 33.292969 19.722656 31.085938 22.609375 28.058594 23.539062 L 28.058594 27.835938 C 28.058594 30.734375 25.667969 30.910156 22.734375 30.910156 L 21.617188 30.910156 C 20.835938 30.910156 14.972656 30.910156 14.1875 30.910156 L 12.71875 30.910156 C 9.726562 30.910156 7.195312 30.6875 7.195312 27.835938 L 7.195312 20.519531 L 5.261719 20.519531 C 4.683594 20.519531 4.167969 20.171875 3.945312 19.644531 C 3.726562 19.113281 3.847656 18.507812 4.253906 18.101562 L 7.226562 15.144531 C 7.210938 15.050781 7.195312 14.960938 7.195312 14.859375 L 7.195312 10.949219 C 7.195312 9.910156 8.039062 9.066406 9.085938 9.066406 L 9.097656 9.066406 C 10.097656 9.066406 10.902344 9.839844 10.972656 10.816406 C 10.972656 11.210938 10.988281 11.394531 11.011719 11.367188 C 11.054688 11.328125 11.242188 11.144531 11.308594 11.074219 C 12.238281 10.148438 13.632812 8.761719 15.492188 6.90625 C 16.03125 6.371094 16.746094 6.078125 17.503906 6.078125 C 18.265625 6.078125 18.980469 6.371094 19.515625 6.90625 Z M 25.933594 15.890625 C 25.933594 15.894531 25.609375 15.574219 24.964844 14.9375 L 25.164062 14.855469 C 25.738281 14.617188 26.0625 14.402344 26.242188 14.144531 C 26.367188 13.957031 26.410156 13.808594 26.410156 13.527344 C 26.410156 13.34375 26.398438 13.265625 26.339844 13.152344 C 26.199219 12.859375 25.929688 12.648438 25.542969 12.527344 C 25.367188 12.472656 25.28125 12.464844 24.945312 12.464844 C 24.730469 12.46875 24.507812 12.476562 24.453125 12.476562 C 24.269531 12.488281 24.335938 12.40625 24.597656 12.304688 C 25.046875 12.136719 25.578125 12.011719 26.230469 11.933594 C 26.652344 11.878906 27.574219 11.878906 27.949219 11.929688 C 29.078125 12.082031 29.816406 12.441406 30.140625 12.988281 C 30.285156 13.230469 30.34375 13.460938 30.34375 13.773438 C 30.339844 14.066406 30.3125 14.222656 30.203125 14.4375 C 29.925781 15.011719 29.183594 15.398438 27.921875 15.628906 C 27.632812 15.679688 26.660156 15.804688 26.140625 15.851562 C 26.027344 15.863281 25.933594 15.878906 25.933594 15.890625 Z M 29.257812 19.195312 C 29.253906 19.203125 28.808594 18.769531 27.921875 17.894531 L 29.589844 17.894531 C 29.941406 17.894531 30.226562 18.179688 30.226562 18.535156 L 30.226562 18.695312 C 30.226562 18.957031 30.015625 19.171875 29.753906 19.171875 C 29.488281 19.171875 29.269531 19.183594 29.257812 19.195312 Z M 23.378906 15.261719 C 23.378906 15.253906 23.632812 15.5 24.140625 16 L 23.882812 16.035156 C 22.507812 16.222656 21.808594 16.617188 21.738281 17.238281 C 21.726562 17.332031 21.648438 17.402344 21.554688 17.402344 L 21.402344 17.402344 C 21.308594 17.402344 21.234375 17.328125 21.234375 17.234375 C 21.234375 16.734375 21.550781 16.238281 22.089844 15.875 C 22.332031 15.714844 22.933594 15.425781 23.226562 15.328125 C 23.308594 15.300781 23.378906 15.269531 23.378906 15.261719 Z M 22.25 18.535156 C 22.25 18.179688 22.535156 17.894531 22.886719 17.894531 L 26.339844 17.894531 L 27.636719 19.171875 L 22.886719 19.171875 C 22.535156 19.171875 22.25 18.886719 22.25 18.535156 Z M 22.175781 18.699219 C 22.175781 18.960938 21.964844 19.171875 21.703125 19.171875 C 21.445312 19.171875 21.234375 18.960938 21.234375 18.699219 L 21.234375 18.367188 C 21.234375 18.105469 21.445312 17.894531 21.703125 17.894531 C 21.964844 17.894531 22.175781 18.105469 22.175781 18.367188 Z M 22.175781 18.699219 " fill-opacity="1" fill-rule="nonzero"/></g></svg>