<svg xmlns="http://www.w3.org/2000/svg" xmlns:xlink="http://www.w3.org/1999/xlink" width="50" zoomAndPan="magnify" viewBox="0 0 37.5 37.499999" height="50" preserveAspectRatio="xMidYMid meet" version="1.0"><defs><clipPath id="eed198d198"><path d="M 3.699219 3.699219 L 33.304688 3.699219 L 33.304688 33.304688 L 3.699219 33.304688 Z M 3.699219 3.699219 " clip-rule="nonzero"/></clipPath></defs><g clip-path="url(#eed198d198)"><path fill="#f7f7f7" d="M 33.277344 25.121094 L 31.871094 19.316406 C 31.824219 19.128906 31.65625 18.996094 31.464844 18.996094 L 30.34375 18.996094 C 30.378906 18.882812 30.402344 18.757812 30.402344 18.632812 C 30.402344 17.996094 29.902344 17.472656 29.277344 17.429688 C 29.175781 16.433594 28.734375 15.511719 28.007812 14.800781 C 27.46875 14.273438 26.8125 13.902344 26.097656 13.714844 C 26.175781 13.558594 26.21875 13.382812 26.21875 13.195312 C 26.21875 12.523438 25.671875 11.976562 25 11.976562 C 24.328125 11.976562 23.785156 12.523438 23.785156 13.195312 C 23.785156 13.382812 23.828125 13.558594 23.902344 13.71875 C 23.316406 13.871094 22.761719 14.152344 22.285156 14.539062 C 21.679688 15.03125 21.21875 15.6875 20.953125 16.414062 C 20.746094 16.335938 20.519531 16.289062 20.28125 16.289062 L 17.851562 16.289062 L 17.851562 14.195312 C 17.851562 12.972656 16.855469 11.976562 15.632812 11.976562 L 5.917969 11.976562 C 4.695312 11.976562 3.699219 12.972656 3.699219 14.195312 L 3.699219 18.132812 C 3.699219 19.191406 4.558594 20.050781 5.617188 20.050781 L 6.621094 20.050781 L 6.621094 32.878906 C 6.621094 33.109375 6.8125 33.296875 7.042969 33.296875 L 14.507812 33.296875 C 14.742188 33.296875 14.929688 33.109375 14.929688 32.878906 L 14.929688 19.71875 C 15.234375 19.925781 15.605469 20.050781 16.007812 20.050781 L 17.953125 20.050781 L 16.722656 25.121094 C 16.695312 25.246094 16.722656 25.378906 16.800781 25.480469 C 16.882812 25.582031 17.003906 25.640625 17.132812 25.640625 L 19.019531 25.640625 L 19.019531 28.140625 L 18.054688 28.140625 C 17.824219 28.140625 17.636719 28.328125 17.636719 28.558594 L 17.636719 31.128906 C 17.636719 31.359375 17.824219 31.546875 18.054688 31.546875 L 18.671875 31.546875 C 18.730469 32.523438 19.542969 33.296875 20.535156 33.296875 C 21.523438 33.296875 22.339844 32.523438 22.398438 31.546875 L 27.601562 31.546875 C 27.664062 32.523438 28.476562 33.296875 29.464844 33.296875 C 30.457031 33.296875 31.269531 32.523438 31.332031 31.546875 L 31.945312 31.546875 C 32.175781 31.546875 32.363281 31.359375 32.363281 31.128906 L 32.363281 28.558594 C 32.363281 28.328125 32.175781 28.140625 31.945312 28.140625 L 30.980469 28.140625 L 30.980469 25.640625 L 32.867188 25.640625 C 32.996094 25.640625 33.117188 25.582031 33.199219 25.480469 C 33.277344 25.378906 33.304688 25.246094 33.277344 25.121094 Z M 29.5625 18.632812 C 29.5625 18.832031 29.398438 18.996094 29.195312 18.996094 L 21.96875 18.996094 C 22.078125 18.773438 22.144531 18.527344 22.160156 18.265625 L 29.195312 18.265625 C 29.398438 18.265625 29.5625 18.429688 29.5625 18.632812 Z M 24.621094 13.195312 C 24.621094 12.988281 24.792969 12.816406 25 12.816406 C 25.210938 12.816406 25.378906 12.988281 25.378906 13.195312 C 25.378906 13.402344 25.210938 13.574219 25 13.574219 C 24.792969 13.574219 24.621094 13.402344 24.621094 13.195312 Z M 25 14.414062 C 26.742188 14.414062 28.210938 15.734375 28.433594 17.425781 L 22.007812 17.425781 C 21.925781 17.234375 21.8125 17.0625 21.675781 16.910156 C 22.097656 15.449219 23.460938 14.414062 25 14.414062 Z M 8.78125 24.472656 L 10.355469 24.472656 L 10.355469 32.457031 L 7.460938 32.457031 L 7.460938 20.050781 L 8.363281 20.050781 L 8.363281 24.054688 C 8.363281 24.285156 8.550781 24.472656 8.78125 24.472656 Z M 9.203125 23.632812 L 9.203125 17.128906 L 11.960938 17.128906 L 11.960938 23.632812 Z M 14.929688 18.132812 L 14.929688 15.390625 C 14.929688 15.160156 14.742188 14.972656 14.507812 14.972656 C 14.277344 14.972656 14.089844 15.160156 14.089844 15.390625 L 14.089844 32.457031 L 11.195312 32.457031 L 11.195312 24.472656 L 12.382812 24.472656 C 12.613281 24.472656 12.800781 24.285156 12.800781 24.054688 L 12.800781 16.710938 C 12.800781 16.476562 12.613281 16.289062 12.382812 16.289062 L 7.460938 16.289062 L 7.460938 15.390625 C 7.460938 15.160156 7.273438 14.972656 7.042969 14.972656 C 6.8125 14.972656 6.621094 15.160156 6.621094 15.390625 L 6.621094 16.710938 C 6.621094 16.941406 6.8125 17.128906 7.042969 17.128906 L 8.363281 17.128906 L 8.363281 19.210938 L 5.617188 19.210938 C 5.023438 19.210938 4.539062 18.726562 4.539062 18.132812 L 4.539062 14.195312 C 4.539062 13.433594 5.15625 12.816406 5.917969 12.816406 L 15.632812 12.816406 C 16.394531 12.816406 17.011719 13.433594 17.011719 14.195312 L 17.011719 16.710938 C 17.011719 16.941406 17.199219 17.128906 17.429688 17.128906 L 20.28125 17.128906 C 20.855469 17.128906 21.324219 17.59375 21.324219 18.171875 C 21.324219 18.746094 20.855469 19.210938 20.28125 19.210938 L 16.007812 19.210938 C 15.410156 19.210938 14.929688 18.726562 14.929688 18.132812 Z M 19.859375 25.640625 L 20.859375 25.640625 L 20.859375 28.140625 L 19.859375 28.140625 Z M 21.695312 28.140625 L 21.695312 25.640625 L 28.304688 25.640625 L 28.304688 28.140625 Z M 20.535156 32.457031 C 19.964844 32.457031 19.503906 31.996094 19.503906 31.429688 C 19.503906 30.859375 19.964844 30.398438 20.535156 30.398438 C 21.101562 30.398438 21.566406 30.859375 21.566406 31.429688 C 21.566406 31.996094 21.101562 32.457031 20.535156 32.457031 Z M 29.464844 32.457031 C 28.898438 32.457031 28.433594 31.996094 28.433594 31.429688 C 28.433594 30.859375 28.898438 30.398438 29.464844 30.398438 C 30.035156 30.398438 30.496094 30.859375 30.496094 31.429688 C 30.496094 31.996094 30.035156 32.457031 29.464844 32.457031 Z M 31.523438 30.707031 L 31.191406 30.707031 C 30.910156 30.035156 30.242188 29.558594 29.464844 29.558594 C 28.691406 29.558594 28.023438 30.035156 27.742188 30.707031 L 22.257812 30.707031 C 21.976562 30.035156 21.308594 29.558594 20.535156 29.558594 C 19.757812 29.558594 19.09375 30.035156 18.808594 30.707031 L 18.476562 30.707031 L 18.476562 28.980469 L 31.523438 28.980469 Z M 30.144531 28.140625 L 29.144531 28.140625 L 29.144531 25.640625 L 30.144531 25.640625 Z M 17.664062 24.800781 L 18.816406 20.050781 L 20.28125 20.050781 C 20.59375 20.050781 20.890625 19.972656 21.152344 19.835938 L 31.132812 19.835938 L 32.335938 24.800781 Z M 10.777344 10.691406 C 12.699219 10.691406 14.265625 9.125 14.265625 7.203125 C 14.265625 5.277344 12.699219 3.710938 10.777344 3.710938 C 8.851562 3.710938 7.285156 5.277344 7.285156 7.203125 C 7.285156 9.125 8.851562 10.691406 10.777344 10.691406 Z M 10.777344 4.546875 C 12.238281 4.546875 13.429688 5.738281 13.429688 7.203125 C 13.429688 8.664062 12.238281 9.855469 10.777344 9.855469 C 9.3125 9.855469 8.121094 8.664062 8.121094 7.203125 C 8.121094 5.738281 9.3125 4.546875 10.777344 4.546875 Z M 10.777344 4.546875 " fill-opacity="1" fill-rule="nonzero"/></g></svg>