<svg xmlns="http://www.w3.org/2000/svg" xmlns:xlink="http://www.w3.org/1999/xlink" width="50" zoomAndPan="magnify" viewBox="0 0 37.5 37.499999" height="50" preserveAspectRatio="xMidYMid meet" version="1.0"><defs><clipPath id="fd6be5f3fb"><path d="M 3.699219 3.847656 L 33.304688 3.847656 L 33.304688 33.453125 L 3.699219 33.453125 Z M 3.699219 3.847656 " clip-rule="nonzero"/></clipPath></defs><path fill="#f7f7f7" d="M 10.390625 7.691406 C 10.390625 6.625 9.523438 5.757812 8.457031 5.757812 C 7.390625 5.757812 6.523438 6.625 6.523438 7.691406 C 6.523438 8.753906 7.390625 9.621094 8.457031 9.621094 C 9.523438 9.621094 10.390625 8.753906 10.390625 7.691406 Z M 7.46875 7.691406 C 7.46875 7.144531 7.914062 6.703125 8.457031 6.703125 C 9 6.703125 9.445312 7.144531 9.445312 7.691406 C 9.445312 8.234375 9 8.675781 8.457031 8.675781 C 7.914062 8.675781 7.46875 8.234375 7.46875 7.691406 Z M 7.46875 7.691406 " fill-opacity="1" fill-rule="nonzero"/><path fill="#f7f7f7" d="M 22.964844 9.257812 C 23.828125 9.257812 24.53125 8.554688 24.53125 7.691406 C 24.53125 6.824219 23.828125 6.121094 22.964844 6.121094 L 19.539062 6.121094 C 18.675781 6.121094 17.972656 6.824219 17.972656 7.691406 C 17.972656 8.554688 18.675781 9.257812 19.539062 9.257812 Z M 18.917969 7.691406 C 18.917969 7.347656 19.195312 7.066406 19.539062 7.066406 L 22.964844 7.066406 C 23.308594 7.066406 23.585938 7.347656 23.585938 7.691406 C 23.585938 8.03125 23.308594 8.3125 22.964844 8.3125 L 19.539062 8.3125 C 19.195312 8.3125 18.917969 8.03125 18.917969 7.691406 Z M 18.917969 7.691406 " fill-opacity="1" fill-rule="nonzero"/><g clip-path="url(#fd6be5f3fb)"><path fill="#f7f7f7" d="M 33.304688 24.144531 C 33.304688 23.25 32.574219 22.523438 31.679688 22.523438 L 27.355469 22.523438 L 27.355469 6.011719 C 27.355469 4.820312 26.382812 3.847656 25.191406 3.847656 L 5.867188 3.847656 C 4.671875 3.847656 3.703125 4.820312 3.703125 6.011719 L 3.703125 30.988281 C 3.703125 32.183594 4.671875 33.152344 5.867188 33.152344 L 17.90625 33.152344 C 18.167969 33.152344 18.378906 32.941406 18.378906 32.679688 C 18.378906 32.417969 18.167969 32.207031 17.90625 32.207031 L 5.867188 32.207031 C 5.195312 32.207031 4.648438 31.660156 4.648438 30.992188 L 4.648438 6.011719 C 4.648438 5.339844 5.195312 4.792969 5.867188 4.792969 L 25.191406 4.792969 C 25.863281 4.792969 26.410156 5.339844 26.410156 6.011719 L 26.410156 10.585938 L 6.0625 10.585938 C 5.800781 10.585938 5.589844 10.796875 5.589844 11.058594 C 5.589844 11.320312 5.800781 11.53125 6.0625 11.53125 L 26.410156 11.53125 L 26.410156 22.523438 L 23.410156 22.523438 C 23.425781 22.304688 23.4375 22.085938 23.4375 21.871094 C 23.4375 17.507812 19.890625 13.960938 15.527344 13.960938 C 11.167969 13.960938 7.621094 17.507812 7.621094 21.871094 C 7.621094 26.230469 11.167969 29.777344 15.527344 29.777344 C 16.675781 29.777344 17.8125 29.527344 18.847656 29.046875 L 19.25 31.78125 C 19.363281 32.5625 20.046875 33.152344 20.835938 33.152344 L 29.371094 33.152344 C 30.164062 33.152344 30.84375 32.5625 30.960938 31.78125 L 31.84375 25.761719 C 32.664062 25.675781 33.304688 24.984375 33.304688 24.144531 Z M 15.527344 28.832031 C 11.6875 28.832031 8.566406 25.710938 8.566406 21.871094 C 8.566406 18.03125 11.6875 14.90625 15.527344 14.90625 C 19.367188 14.90625 22.492188 18.03125 22.492188 21.871094 C 22.492188 22.085938 22.480469 22.304688 22.460938 22.523438 L 18.527344 22.523438 C 17.632812 22.523438 16.90625 23.25 16.90625 24.144531 C 16.90625 24.910156 17.4375 25.550781 18.148438 25.722656 C 17.378906 26.246094 16.464844 26.527344 15.527344 26.527344 C 12.960938 26.527344 10.871094 24.4375 10.871094 21.871094 C 10.871094 19.300781 12.960938 17.210938 15.527344 17.210938 C 17.8125 17.210938 19.746094 18.84375 20.125 21.09375 C 20.167969 21.351562 20.410156 21.523438 20.667969 21.480469 C 20.925781 21.4375 21.097656 21.195312 21.054688 20.9375 C 20.839844 19.644531 20.167969 18.464844 19.167969 17.609375 C 18.152344 16.742188 16.863281 16.265625 15.527344 16.265625 C 12.4375 16.265625 9.925781 18.78125 9.925781 21.871094 C 9.925781 24.960938 12.4375 27.476562 15.527344 27.476562 C 16.582031 27.476562 17.609375 27.175781 18.492188 26.625 L 18.703125 28.066406 C 17.726562 28.570312 16.636719 28.832031 15.527344 28.832031 Z M 30.886719 25.769531 L 30.484375 28.515625 L 27.683594 28.515625 L 27.90625 25.769531 Z M 26.738281 28.515625 L 23.472656 28.515625 L 23.253906 25.769531 L 26.957031 25.769531 Z M 23.769531 32.207031 L 23.550781 29.460938 L 26.660156 29.460938 L 26.441406 32.207031 Z M 22.304688 25.769531 L 22.523438 28.515625 L 19.726562 28.515625 L 19.320312 25.769531 Z M 20.183594 31.644531 L 19.863281 29.460938 L 22.601562 29.460938 L 22.820312 32.207031 L 20.835938 32.207031 C 20.511719 32.207031 20.230469 31.964844 20.183594 31.644531 Z M 29.371094 32.207031 L 27.390625 32.207031 L 27.609375 29.460938 L 30.34375 29.460938 L 30.023438 31.644531 C 29.976562 31.964844 29.695312 32.207031 29.371094 32.207031 Z M 31.679688 24.824219 L 18.527344 24.824219 C 18.15625 24.824219 17.851562 24.519531 17.851562 24.144531 C 17.851562 23.773438 18.15625 23.46875 18.527344 23.46875 L 31.679688 23.46875 C 32.054688 23.46875 32.359375 23.773438 32.359375 24.144531 C 32.359375 24.519531 32.054688 24.824219 31.679688 24.824219 Z M 31.679688 24.824219 " fill-opacity="1" fill-rule="nonzero"/></g></svg>