<svg xmlns="http://www.w3.org/2000/svg" xmlns:xlink="http://www.w3.org/1999/xlink" width="50" zoomAndPan="magnify" viewBox="0 0 37.5 37.499999" height="50" preserveAspectRatio="xMidYMid meet" version="1.0"><defs><clipPath id="72de9e931b"><path d="M 3.699219 4.035156 L 33.304688 4.035156 L 33.304688 32.898438 L 3.699219 32.898438 Z M 3.699219 4.035156 " clip-rule="nonzero"/></clipPath></defs><g clip-path="url(#72de9e931b)"><path fill="#f7f7f7" d="M 32.640625 31.652344 L 31.328125 31.652344 L 31.328125 26.359375 C 32.445312 26.195312 33.300781 25.242188 33.300781 24.089844 C 33.300781 22.941406 32.445312 21.984375 31.328125 21.820312 L 31.328125 20.472656 C 31.328125 19.390625 30.4375 18.5 29.355469 18.5 L 28.039062 18.5 C 27.875 16.890625 26.65625 15.574219 25.078125 15.277344 L 25.078125 14.554688 C 25.078125 14.195312 24.785156 13.898438 24.421875 13.898438 C 24.058594 13.898438 23.765625 14.195312 23.765625 14.554688 L 23.765625 15.277344 C 22.1875 15.574219 20.96875 16.890625 20.804688 18.5 L 18.832031 18.5 L 18.832031 15.871094 C 18.832031 13.800781 17.449219 12.023438 15.578125 11.464844 C 16.367188 10.675781 16.859375 9.558594 16.859375 8.308594 C 16.859375 5.941406 15.082031 4.035156 12.914062 4.035156 C 10.742188 4.035156 8.96875 5.941406 8.96875 8.308594 C 8.96875 9.558594 9.460938 10.675781 10.25 11.464844 C 8.375 12.023438 6.996094 13.800781 6.996094 15.871094 L 6.996094 18.5 L 5.679688 18.5 C 4.59375 18.5 3.707031 19.390625 3.707031 20.472656 L 3.707031 30.996094 C 3.707031 32.082031 4.59375 32.96875 5.679688 32.96875 L 32.640625 32.96875 C 33.003906 32.96875 33.300781 32.671875 33.300781 32.3125 C 33.300781 31.949219 33.003906 31.652344 32.640625 31.652344 Z M 24.421875 16.527344 C 25.574219 16.527344 26.527344 17.382812 26.691406 18.5 L 22.152344 18.5 C 22.316406 17.382812 23.269531 16.527344 24.421875 16.527344 Z M 12.914062 5.347656 C 14.359375 5.347656 15.542969 6.664062 15.542969 8.308594 C 15.542969 9.953125 14.359375 11.265625 12.914062 11.265625 C 11.46875 11.265625 10.285156 9.953125 10.285156 8.308594 C 10.285156 6.664062 11.46875 5.347656 12.914062 5.347656 Z M 8.308594 15.871094 C 8.308594 14.0625 9.789062 12.582031 11.597656 12.582031 L 14.230469 12.582031 C 16.039062 12.582031 17.515625 14.0625 17.515625 15.871094 L 17.515625 18.5 L 8.308594 18.5 Z M 30.011719 31.652344 L 5.679688 31.652344 C 5.316406 31.652344 5.023438 31.355469 5.023438 30.996094 L 5.023438 20.472656 C 5.023438 20.113281 5.316406 19.816406 5.679688 19.816406 L 29.355469 19.816406 C 29.714844 19.816406 30.011719 20.113281 30.011719 20.472656 L 30.011719 21.789062 L 19.160156 21.789062 C 17.878906 21.789062 16.859375 22.808594 16.859375 24.089844 C 16.859375 25.371094 17.878906 26.390625 19.160156 26.390625 L 30.011719 26.390625 Z M 19.160156 25.078125 C 18.601562 25.078125 18.175781 24.617188 18.175781 24.089844 C 18.175781 23.53125 18.601562 23.105469 19.160156 23.105469 L 30.996094 23.105469 C 31.558594 23.105469 31.984375 23.53125 31.984375 24.089844 C 31.984375 24.617188 31.558594 25.078125 30.996094 25.078125 Z M 19.160156 25.078125 " fill-opacity="1" fill-rule="nonzero"/></g></svg>