<svg xmlns="http://www.w3.org/2000/svg" xmlns:xlink="http://www.w3.org/1999/xlink" width="50" zoomAndPan="magnify" viewBox="0 0 37.5 37.499999" height="50" preserveAspectRatio="xMidYMid meet" version="1.0"><defs><clipPath id="83c6757eb5"><path d="M 7.523438 11 L 29.726562 11 L 29.726562 33.304688 L 7.523438 33.304688 Z M 7.523438 11 " clip-rule="nonzero"/></clipPath><clipPath id="1efdec00ba"><path d="M 11 3.699219 L 19 3.699219 L 19 11 L 11 11 Z M 11 3.699219 " clip-rule="nonzero"/></clipPath><clipPath id="30050695de"><path d="M 18 3.699219 L 26 3.699219 L 26 11 L 18 11 Z M 18 3.699219 " clip-rule="nonzero"/></clipPath></defs><g clip-path="url(#83c6757eb5)"><path fill="#f7f7f7" d="M 27.8125 11.34375 L 9.195312 11.34375 C 8.273438 11.34375 7.523438 12.089844 7.523438 13.011719 L 7.523438 31.632812 C 7.523438 32.554688 8.273438 33.304688 9.195312 33.304688 L 27.8125 33.304688 C 28.734375 33.304688 29.484375 32.554688 29.484375 31.632812 L 29.484375 13.011719 C 29.484375 12.089844 28.734375 11.34375 27.8125 11.34375 Z M 28.527344 31.632812 C 28.527344 32.027344 28.207031 32.347656 27.8125 32.347656 L 9.195312 32.347656 C 8.796875 32.347656 8.476562 32.027344 8.476562 31.632812 L 8.476562 13.011719 C 8.476562 12.617188 8.796875 12.296875 9.195312 12.296875 L 27.8125 12.296875 C 28.207031 12.296875 28.527344 12.617188 28.527344 13.011719 Z M 28.527344 31.632812 " fill-opacity="1" fill-rule="nonzero"/></g><path fill="#f7f7f7" d="M 20.890625 15.640625 C 20.890625 14.324219 19.820312 13.25 18.503906 13.25 C 17.1875 13.25 16.117188 14.324219 16.117188 15.640625 C 16.117188 16.953125 17.1875 18.027344 18.503906 18.027344 C 19.820312 18.027344 20.890625 16.953125 20.890625 15.640625 Z M 18.503906 17.070312 C 17.714844 17.070312 17.070312 16.429688 17.070312 15.640625 C 17.070312 14.847656 17.714844 14.207031 18.503906 14.207031 C 19.292969 14.207031 19.933594 14.847656 19.933594 15.640625 C 19.933594 16.429688 19.292969 17.070312 18.503906 17.070312 Z M 18.503906 17.070312 " fill-opacity="1" fill-rule="nonzero"/><path fill="#f7f7f7" d="M 21.128906 18.027344 L 15.878906 18.027344 C 14.957031 18.027344 14.207031 18.777344 14.207031 19.695312 L 14.207031 23.515625 C 14.207031 24.355469 14.828125 25.054688 15.636719 25.167969 L 15.636719 30.917969 C 15.636719 31.179688 15.851562 31.394531 16.117188 31.394531 L 20.890625 31.394531 C 21.152344 31.394531 21.367188 31.179688 21.367188 30.917969 L 21.367188 25.167969 C 22.175781 25.054688 22.800781 24.355469 22.800781 23.515625 L 22.800781 19.695312 C 22.800781 18.777344 22.050781 18.027344 21.128906 18.027344 Z M 20.414062 30.4375 L 18.980469 30.4375 L 18.980469 27.574219 C 18.980469 27.308594 18.765625 27.097656 18.503906 27.097656 C 18.238281 27.097656 18.027344 27.308594 18.027344 27.574219 L 18.027344 30.4375 L 16.59375 30.4375 L 16.59375 25.1875 L 20.414062 25.1875 Z M 21.84375 23.515625 C 21.84375 23.828125 21.644531 24.09375 21.367188 24.191406 L 21.367188 20.890625 C 21.367188 20.625 21.152344 20.414062 20.890625 20.414062 C 20.625 20.414062 20.414062 20.625 20.414062 20.890625 L 20.414062 24.230469 L 16.59375 24.230469 L 16.59375 20.890625 C 16.59375 20.625 16.378906 20.414062 16.117188 20.414062 C 15.851562 20.414062 15.636719 20.625 15.636719 20.890625 L 15.636719 24.191406 C 15.359375 24.09375 15.160156 23.828125 15.160156 23.515625 L 15.160156 19.695312 C 15.160156 19.300781 15.480469 18.980469 15.878906 18.980469 L 21.128906 18.980469 C 21.523438 18.980469 21.84375 19.300781 21.84375 19.695312 Z M 21.84375 23.515625 " fill-opacity="1" fill-rule="nonzero"/><g clip-path="url(#1efdec00ba)"><path fill="#f7f7f7" d="M 11.820312 8 L 12.773438 8 L 12.773438 10.386719 C 12.773438 10.652344 12.988281 10.863281 13.25 10.863281 L 16.117188 10.863281 C 16.378906 10.863281 16.59375 10.652344 16.59375 10.386719 L 16.59375 8 L 17.546875 8 C 17.734375 8 17.902344 7.890625 17.980469 7.722656 C 18.058594 7.554688 18.03125 7.355469 17.910156 7.210938 L 15.046875 3.871094 C 14.957031 3.765625 14.824219 3.703125 14.683594 3.703125 C 14.542969 3.703125 14.410156 3.765625 14.320312 3.871094 L 11.457031 7.210938 C 11.335938 7.355469 11.308594 7.554688 11.386719 7.722656 C 11.464844 7.890625 11.632812 8 11.820312 8 Z M 14.683594 4.914062 L 16.511719 7.046875 L 16.117188 7.046875 C 15.851562 7.046875 15.636719 7.257812 15.636719 7.523438 L 15.636719 9.910156 L 13.730469 9.910156 L 13.730469 7.523438 C 13.730469 7.257812 13.515625 7.046875 13.25 7.046875 L 12.855469 7.046875 Z M 14.683594 4.914062 " fill-opacity="1" fill-rule="nonzero"/></g><g clip-path="url(#30050695de)"><path fill="#f7f7f7" d="M 21.960938 10.699219 C 22.050781 10.804688 22.183594 10.863281 22.324219 10.863281 C 22.460938 10.863281 22.59375 10.804688 22.683594 10.699219 L 25.550781 7.355469 C 25.671875 7.214844 25.699219 7.015625 25.621094 6.847656 C 25.542969 6.675781 25.375 6.566406 25.1875 6.566406 L 24.230469 6.566406 L 24.230469 4.179688 C 24.230469 3.917969 24.019531 3.703125 23.753906 3.703125 L 20.890625 3.703125 C 20.625 3.703125 20.414062 3.917969 20.414062 4.179688 L 20.414062 6.566406 L 19.457031 6.566406 C 19.269531 6.566406 19.101562 6.675781 19.023438 6.847656 C 18.945312 7.015625 18.972656 7.214844 19.09375 7.355469 Z M 20.890625 7.523438 C 21.152344 7.523438 21.367188 7.308594 21.367188 7.046875 L 21.367188 4.660156 L 23.277344 4.660156 L 23.277344 7.046875 C 23.277344 7.308594 23.492188 7.523438 23.753906 7.523438 L 24.148438 7.523438 L 22.324219 9.652344 L 20.496094 7.523438 Z M 20.890625 7.523438 " fill-opacity="1" fill-rule="nonzero"/></g></svg>