<svg xmlns="http://www.w3.org/2000/svg" xmlns:xlink="http://www.w3.org/1999/xlink" width="50" zoomAndPan="magnify" viewBox="0 0 37.5 37.499999" height="50" preserveAspectRatio="xMidYMid meet" version="1.0"><defs><clipPath id="f7456064a9"><path d="M 3.699219 3.699219 L 33.304688 3.699219 L 33.304688 33.304688 L 3.699219 33.304688 Z M 3.699219 3.699219 " clip-rule="nonzero"/></clipPath></defs><g clip-path="url(#f7456064a9)"><path fill="#f7f7f7" d="M 18.507812 3.695312 C 26.683594 3.695312 33.3125 10.324219 33.3125 18.5 C 33.3125 24.738281 29.449219 30.074219 23.988281 32.253906 L 23.769531 27.589844 L 23.769531 27.582031 C 23.78125 26.65625 24.171875 25.929688 25.035156 25.566406 L 25.148438 25.519531 L 25.152344 25.519531 L 25.160156 25.515625 L 25.171875 25.511719 C 25.808594 25.253906 26.328125 24.90625 26.679688 24.304688 C 27.121094 23.558594 27.207031 22.5625 27.207031 21.710938 C 27.207031 20.082031 26.726562 18.15625 25.894531 16.746094 C 25.308594 15.742188 24.378906 14.730469 23.125 14.730469 C 21.871094 14.730469 20.941406 15.742188 20.355469 16.746094 C 19.523438 18.15625 19.042969 20.082031 19.042969 21.710938 C 19.042969 22.5625 19.128906 23.558594 19.570312 24.304688 C 19.925781 24.910156 20.453125 25.257812 21.089844 25.515625 C 21.109375 25.523438 21.125 25.53125 21.144531 25.539062 L 21.148438 25.539062 L 21.207031 25.5625 C 22.074219 25.925781 22.46875 26.644531 22.480469 27.582031 L 22.480469 27.589844 L 22.234375 32.828125 C 21.042969 33.136719 19.796875 33.300781 18.507812 33.300781 C 17.175781 33.300781 15.882812 33.125 14.65625 32.792969 L 14.425781 27.890625 L 14.425781 27.878906 C 14.441406 26.933594 14.84375 26.1875 15.726562 25.8125 L 15.839844 25.769531 L 15.84375 25.765625 L 15.847656 25.765625 L 15.863281 25.761719 C 16.484375 25.507812 16.996094 25.167969 17.34375 24.578125 C 17.777344 23.839844 17.859375 22.847656 17.859375 22.011719 C 17.859375 21.929688 17.859375 21.847656 17.851562 21.769531 C 17.851562 21.722656 17.847656 21.675781 17.839844 21.628906 L 17.832031 21.5625 L 17.84375 21.515625 L 17.308594 15.253906 L 16.742188 15.253906 L 16.695312 21.871094 L 15.757812 21.964844 L 15.199219 14.484375 L 14.589844 14.523438 L 14.46875 22.054688 L 14.136719 22.070312 C 14.066406 22.074219 14 22.074219 13.929688 22.074219 C 13.859375 22.074219 13.789062 22.074219 13.722656 22.070312 L 13.390625 22.054688 L 13.222656 14.523438 L 12.609375 14.484375 L 12.101562 21.964844 L 11.164062 21.871094 L 11.117188 15.253906 L 10.550781 15.253906 L 9.824219 21.515625 L 9.835938 21.5625 L 9.828125 21.628906 C 9.820312 21.675781 9.816406 21.722656 9.816406 21.769531 C 9.808594 21.847656 9.808594 21.929688 9.808594 22.011719 C 9.808594 22.847656 9.890625 23.839844 10.324219 24.578125 C 10.675781 25.171875 11.191406 25.511719 11.820312 25.765625 C 11.832031 25.769531 11.847656 25.777344 11.863281 25.785156 L 11.867188 25.785156 L 11.933594 25.8125 C 12.820312 26.183594 13.226562 26.921875 13.242188 27.878906 L 13.242188 27.890625 L 13.039062 32.261719 C 7.566406 30.085938 3.703125 24.746094 3.703125 18.5 C 3.707031 10.324219 10.332031 3.695312 18.507812 3.695312 " fill-opacity="1" fill-rule="evenodd"/></g></svg>